<?xml version="1.0" encoding="UTF-8" standalone="no"?>
<svg xmlns="http://www.w3.org/2000/svg" width="1024" height="1024" viewBox="0 0 1024 1024" version="1.1">
<path d="M 262.00 782.00 L 245.00 776.00 L 224.00 776.00 L 206.00 780.00 L 191.00 787.00 L 182.00 797.00 L 179.00 803.00 L 178.00 813.00 L 177.00 814.00 L 178.00 824.00 L 185.00 838.00 L 197.00 848.00 L 205.00 852.00 L 220.00 856.00 L 228.00 856.00 L 242.00 853.00 L 264.00 840.00 L 277.00 827.00 L 280.00 820.00 L 280.00 808.00 L 274.00 794.00 Z M 209.00 784.00 L 225.00 781.00 L 239.00 781.00 L 249.00 783.00 L 258.00 787.00 L 270.00 798.00 L 274.00 805.00 L 275.00 818.00 L 273.00 823.00 L 267.00 829.00 L 258.00 834.00 L 244.00 845.00 L 236.00 849.00 L 217.00 850.00 L 209.00 848.00 L 197.00 841.00 L 187.00 830.00 L 184.00 823.00 L 184.00 808.00 L 187.00 800.00 L 195.00 791.00 Z M 649.00 764.00 L 635.00 753.00 L 625.00 749.00 L 616.00 747.00 L 594.00 748.00 L 577.00 755.00 L 563.00 767.00 L 557.00 776.00 L 554.00 783.00 L 551.00 795.00 L 551.00 802.00 L 555.00 814.00 L 565.00 823.00 L 571.00 826.00 L 582.00 829.00 L 607.00 828.00 L 618.00 825.00 L 633.00 818.00 L 642.00 812.00 L 649.00 805.00 L 655.00 794.00 L 656.00 778.00 L 654.00 772.00 Z M 646.00 770.00 L 650.00 778.00 L 650.00 790.00 L 647.00 797.00 L 636.00 809.00 L 618.00 819.00 L 596.00 824.00 L 580.00 823.00 L 567.00 817.00 L 561.00 811.00 L 558.00 805.00 L 558.00 790.00 L 563.00 778.00 L 568.00 771.00 L 577.00 762.00 L 589.00 755.00 L 600.00 752.00 L 618.00 753.00 L 635.00 760.00 Z M 541.00 654.00 L 536.00 654.00 L 524.00 658.00 L 505.00 666.00 L 502.00 666.00 L 480.00 674.00 L 476.00 677.00 L 481.00 677.00 L 502.00 670.00 L 510.00 666.00 L 516.00 665.00 L 527.00 660.00 L 535.00 658.00 L 541.00 655.00 Z M 547.00 627.00 L 539.00 628.00 L 522.00 634.00 L 502.00 639.00 L 489.00 644.00 L 486.00 644.00 L 468.00 650.00 L 465.00 653.00 L 470.00 653.00 L 476.00 650.00 L 486.00 648.00 L 496.00 644.00 L 502.00 643.00 L 505.00 641.00 L 528.00 635.00 L 543.00 630.00 Z M 553.00 605.00 L 545.00 606.00 L 518.00 614.00 L 514.00 614.00 L 506.00 617.00 L 502.00 617.00 L 479.00 624.00 L 458.00 629.00 L 457.00 632.00 L 536.00 612.00 L 551.00 607.00 Z M 445.00 478.00 L 445.00 480.00 L 451.00 485.00 L 455.00 484.00 L 454.00 481.00 L 450.00 478.00 Z M 493.00 466.00 L 489.00 467.00 L 487.00 471.00 L 488.00 476.00 L 492.00 473.00 Z M 486.00 448.00 L 481.00 444.00 L 476.00 442.00 L 465.00 443.00 L 459.00 445.00 L 445.00 453.00 L 440.00 458.00 L 439.00 463.00 L 440.00 465.00 L 445.00 465.00 L 453.00 456.00 L 463.00 451.00 L 483.00 451.00 L 486.00 450.00 Z M 347.00 314.00 L 336.00 311.00 L 325.00 312.00 L 321.00 314.00 L 314.00 321.00 L 310.00 330.00 L 326.00 319.00 L 331.00 317.00 L 347.00 315.00 Z M 509.00 273.00 L 532.00 264.00 L 544.00 264.00 L 554.00 267.00 L 555.00 266.00 L 550.00 261.00 L 544.00 258.00 L 530.00 257.00 L 517.00 263.00 L 512.00 267.00 L 509.00 271.00 Z M 429.00 131.00 L 429.00 135.00 L 432.00 136.00 L 448.00 125.00 L 464.00 141.00 L 469.00 142.00 L 472.00 138.00 L 471.00 134.00 L 460.00 124.00 L 450.00 120.00 L 442.00 120.00 L 435.00 122.00 L 431.00 126.00 Z M 548.00 57.00 L 541.00 57.00 L 523.00 67.00 L 509.00 77.00 L 492.00 94.00 L 488.00 97.00 L 478.00 101.00 L 445.00 105.00 L 431.00 109.00 L 427.00 109.00 L 406.00 116.00 L 403.00 116.00 L 395.00 120.00 L 386.00 122.00 L 375.00 127.00 L 337.00 140.00 L 320.00 144.00 L 311.00 143.00 L 305.00 140.00 L 287.00 135.00 L 267.00 135.00 L 259.00 141.00 L 256.00 148.00 L 254.00 156.00 L 255.00 175.00 L 257.00 184.00 L 270.00 221.00 L 271.00 229.00 L 270.00 230.00 L 264.00 230.00 L 259.00 228.00 L 243.00 226.00 L 242.00 225.00 L 235.00 226.00 L 233.00 228.00 L 229.00 253.00 L 227.00 259.00 L 226.00 275.00 L 232.00 292.00 L 245.00 310.00 L 267.00 335.00 L 272.00 342.00 L 275.00 349.00 L 277.00 359.00 L 277.00 371.00 L 262.00 390.00 L 263.00 403.00 L 265.00 407.00 L 271.00 408.00 L 279.00 414.00 L 285.00 425.00 L 288.00 438.00 L 292.00 447.00 L 298.00 456.00 L 310.00 468.00 L 320.00 475.00 L 338.00 484.00 L 365.00 492.00 L 377.00 494.00 L 387.00 498.00 L 396.00 506.00 L 400.00 512.00 L 406.00 525.00 L 406.00 532.00 L 397.00 548.00 L 389.00 556.00 L 388.00 559.00 L 386.00 559.00 L 377.00 565.00 L 371.00 567.00 L 364.00 567.00 L 359.00 563.00 L 356.00 555.00 L 356.00 531.00 L 358.00 522.00 L 358.00 514.00 L 355.00 506.00 L 349.00 501.00 L 340.00 500.00 L 326.00 505.00 L 318.00 510.00 L 304.00 523.00 L 293.00 536.00 L 272.00 568.00 L 252.00 606.00 L 230.00 660.00 L 226.00 663.00 L 221.00 664.00 L 210.00 669.00 L 190.00 684.00 L 189.00 683.00 L 183.00 683.00 L 175.00 685.00 L 170.00 688.00 L 152.00 707.00 L 138.00 718.00 L 118.00 744.00 L 115.00 753.00 L 115.00 773.00 L 118.00 784.00 L 124.00 796.00 L 130.00 803.00 L 140.00 808.00 L 149.00 810.00 L 154.00 814.00 L 154.00 823.00 L 153.00 824.00 L 154.00 865.00 L 157.00 879.00 L 164.00 898.00 L 177.00 923.00 L 189.00 940.00 L 202.00 953.00 L 213.00 960.00 L 224.00 965.00 L 247.00 971.00 L 261.00 972.00 L 262.00 973.00 L 304.00 974.00 L 305.00 973.00 L 315.00 973.00 L 332.00 969.00 L 355.00 960.00 L 368.00 953.00 L 373.00 959.00 L 377.00 961.00 L 380.00 961.00 L 410.00 972.00 L 422.00 973.00 L 423.00 974.00 L 483.00 974.00 L 484.00 975.00 L 487.00 974.00 L 501.00 974.00 L 525.00 969.00 L 544.00 959.00 L 562.00 976.00 L 576.00 980.00 L 614.00 979.00 L 615.00 978.00 L 622.00 978.00 L 623.00 977.00 L 641.00 975.00 L 664.00 969.00 L 693.00 969.00 L 694.00 970.00 L 722.00 971.00 L 723.00 972.00 L 750.00 971.00 L 751.00 970.00 L 762.00 970.00 L 763.00 969.00 L 782.00 968.00 L 783.00 967.00 L 791.00 967.00 L 792.00 966.00 L 822.00 963.00 L 823.00 962.00 L 850.00 958.00 L 874.00 952.00 L 896.00 944.00 L 911.00 936.00 L 918.00 931.00 L 928.00 921.00 L 930.00 917.00 L 928.00 912.00 L 920.00 907.00 L 872.00 885.00 L 870.00 883.00 L 853.00 875.00 L 824.00 857.00 L 802.00 840.00 L 782.00 820.00 L 774.00 807.00 L 765.00 768.00 L 761.00 759.00 L 761.00 756.00 L 757.00 746.00 L 746.00 726.00 L 752.00 723.00 L 761.00 716.00 L 769.00 713.00 L 776.00 713.00 L 800.00 719.00 L 810.00 718.00 L 815.00 715.00 L 822.00 705.00 L 828.00 692.00 L 832.00 680.00 L 834.00 670.00 L 834.00 663.00 L 835.00 662.00 L 835.00 640.00 L 834.00 639.00 L 833.00 628.00 L 829.00 616.00 L 814.00 586.00 L 814.00 584.00 L 799.00 558.00 L 787.00 540.00 L 771.00 520.00 L 756.00 505.00 L 734.00 488.00 L 694.00 466.00 L 687.00 464.00 L 676.00 458.00 L 656.00 453.00 L 648.00 453.00 L 642.00 455.00 L 637.00 460.00 L 636.00 463.00 L 637.00 477.00 L 643.00 493.00 L 651.00 509.00 L 654.00 521.00 L 653.00 522.00 L 653.00 527.00 L 649.00 531.00 L 646.00 531.00 L 639.00 521.00 L 628.00 491.00 L 621.00 460.00 L 619.00 456.00 L 612.00 426.00 L 607.00 411.00 L 607.00 385.00 L 608.00 384.00 L 608.00 379.00 L 621.00 348.00 L 626.00 324.00 L 626.00 308.00 L 623.00 294.00 L 617.00 280.00 L 615.00 271.00 L 612.00 268.00 L 608.00 267.00 L 610.00 265.00 L 608.00 261.00 L 605.00 246.00 L 605.00 236.00 L 607.00 228.00 L 613.00 214.00 L 618.00 195.00 L 617.00 167.00 L 612.00 149.00 L 603.00 131.00 L 593.00 115.00 L 587.00 115.00 L 570.00 132.00 L 569.00 131.00 L 570.00 103.00 L 569.00 102.00 L 569.00 94.00 L 567.00 86.00 L 559.00 69.00 L 553.00 61.00 Z M 717.00 956.00 L 726.00 951.00 L 740.00 939.00 L 749.00 927.00 L 756.00 914.00 L 764.00 895.00 L 772.00 866.00 L 773.00 855.00 L 774.00 854.00 L 775.00 834.00 L 776.00 833.00 L 799.00 852.00 L 830.00 872.00 L 849.00 882.00 L 851.00 882.00 L 853.00 884.00 L 893.00 900.00 L 895.00 902.00 L 905.00 906.00 L 916.00 915.00 L 915.00 923.00 L 904.00 932.00 L 887.00 940.00 L 842.00 953.00 L 816.00 958.00 L 794.00 960.00 L 793.00 961.00 L 742.00 961.00 Z M 132.00 795.00 L 133.00 794.00 L 134.00 795.00 L 133.00 796.00 Z M 143.00 774.00 L 153.00 779.00 L 160.00 786.00 L 161.00 795.00 L 160.00 798.00 L 155.00 803.00 L 151.00 803.00 L 145.00 800.00 L 140.00 795.00 L 136.00 788.00 L 137.00 779.00 Z M 521.00 751.00 L 534.00 747.00 L 539.00 753.00 L 541.00 759.00 L 540.00 768.00 L 535.00 773.00 L 529.00 772.00 L 520.00 763.00 L 518.00 754.00 Z M 174.00 739.00 L 180.00 739.00 L 184.00 741.00 L 192.00 749.00 L 198.00 760.00 L 198.00 766.00 L 195.00 769.00 L 191.00 771.00 L 180.00 771.00 L 177.00 770.00 L 172.00 765.00 L 168.00 756.00 L 168.00 749.00 L 169.00 744.00 Z M 582.00 729.00 L 582.00 732.00 L 580.00 736.00 L 573.00 742.00 L 566.00 742.00 L 560.00 738.00 L 571.00 732.00 L 581.00 728.00 Z M 635.00 727.00 L 636.00 726.00 L 652.00 727.00 L 653.00 728.00 L 661.00 727.00 L 665.00 728.00 L 667.00 730.00 L 661.00 736.00 L 650.00 737.00 L 641.00 733.00 Z M 633.00 726.00 L 634.00 725.00 L 635.00 726.00 L 634.00 727.00 Z M 145.00 722.00 L 146.00 723.00 L 148.00 749.00 L 155.00 770.00 L 151.00 771.00 L 143.00 769.00 L 137.00 771.00 L 134.00 774.00 L 131.00 782.00 L 131.00 787.00 L 133.00 793.00 L 132.00 795.00 L 128.00 791.00 L 121.00 779.00 L 119.00 773.00 L 119.00 759.00 L 123.00 746.00 L 131.00 733.00 L 141.00 723.00 Z M 544.00 743.00 L 549.00 742.00 L 556.00 747.00 L 566.00 751.00 L 574.00 750.00 L 579.00 747.00 L 584.00 741.00 L 590.00 725.00 L 604.00 719.00 L 610.00 718.00 L 624.00 723.00 L 633.00 724.00 L 634.00 725.00 L 630.00 726.00 L 634.00 735.00 L 640.00 740.00 L 645.00 742.00 L 661.00 742.00 L 673.00 734.00 L 675.00 736.00 L 688.00 742.00 L 703.00 745.00 L 704.00 746.00 L 703.00 761.00 L 694.00 805.00 L 694.00 812.00 L 693.00 813.00 L 693.00 819.00 L 694.00 819.00 L 704.00 798.00 L 710.00 778.00 L 713.00 762.00 L 714.00 745.00 L 730.00 736.00 L 736.00 730.00 L 750.00 757.00 L 760.00 788.00 L 763.00 803.00 L 764.00 819.00 L 765.00 820.00 L 765.00 848.00 L 764.00 849.00 L 764.00 859.00 L 763.00 860.00 L 761.00 877.00 L 753.00 899.00 L 741.00 919.00 L 723.00 938.00 L 713.00 945.00 L 701.00 951.00 L 685.00 956.00 L 684.00 955.00 L 704.00 929.00 L 705.00 924.00 L 701.00 923.00 L 685.00 939.00 L 669.00 950.00 L 641.00 963.00 L 638.00 963.00 L 628.00 967.00 L 616.00 968.00 L 615.00 969.00 L 591.00 969.00 L 578.00 966.00 L 565.00 959.00 L 553.00 948.00 L 544.00 935.00 L 534.00 913.00 L 528.00 891.00 L 527.00 873.00 L 526.00 872.00 L 527.00 836.00 L 530.00 822.00 L 540.00 796.00 L 542.00 788.00 L 543.00 775.00 L 546.00 769.00 L 546.00 756.00 L 542.00 747.00 L 542.00 745.00 Z M 226.00 707.00 L 231.00 707.00 L 236.00 709.00 L 243.00 717.00 L 246.00 725.00 L 245.00 737.00 L 241.00 742.00 L 236.00 744.00 L 231.00 744.00 L 227.00 742.00 L 222.00 737.00 L 217.00 727.00 L 217.00 716.00 L 219.00 712.00 Z M 228.00 671.00 L 238.00 670.00 L 251.00 673.00 L 263.00 681.00 L 271.00 689.00 L 294.00 733.00 L 296.00 740.00 L 304.00 757.00 L 305.00 763.00 L 311.00 776.00 L 320.00 786.00 L 322.00 796.00 L 325.00 841.00 L 330.00 867.00 L 337.00 889.00 L 342.00 899.00 L 344.00 906.00 L 353.00 924.00 L 363.00 938.00 L 361.00 941.00 L 321.00 957.00 L 295.00 963.00 L 268.00 964.00 L 267.00 963.00 L 256.00 963.00 L 252.00 961.00 L 248.00 961.00 L 224.00 952.00 L 210.00 943.00 L 195.00 927.00 L 179.00 899.00 L 168.00 870.00 L 163.00 846.00 L 162.00 822.00 L 163.00 821.00 L 165.00 797.00 L 166.00 796.00 L 166.00 784.00 L 163.00 773.00 L 166.00 772.00 L 175.00 775.00 L 186.00 775.00 L 197.00 772.00 L 204.00 767.00 L 204.00 759.00 L 198.00 749.00 L 188.00 738.00 L 180.00 734.00 L 175.00 734.00 L 170.00 736.00 L 165.00 742.00 L 164.00 760.00 L 162.00 762.00 L 157.00 754.00 L 154.00 744.00 L 154.00 734.00 L 153.00 733.00 L 154.00 732.00 L 154.00 722.00 L 159.00 710.00 L 168.00 700.00 L 180.00 693.00 L 188.00 691.00 L 192.00 692.00 L 195.00 695.00 L 195.00 698.00 L 191.00 707.00 L 191.00 720.00 L 194.00 730.00 L 200.00 741.00 L 212.00 753.00 L 223.00 758.00 L 235.00 758.00 L 245.00 753.00 L 250.00 747.00 L 252.00 742.00 L 253.00 728.00 L 249.00 714.00 L 242.00 706.00 L 235.00 702.00 L 224.00 702.00 L 217.00 705.00 L 213.00 709.00 L 211.00 714.00 L 211.00 724.00 L 212.00 725.00 L 212.00 734.00 L 213.00 735.00 L 212.00 737.00 L 206.00 727.00 L 203.00 717.00 L 203.00 698.00 L 210.00 683.00 L 217.00 676.00 Z M 587.00 665.00 L 597.00 675.00 L 604.00 680.00 L 600.00 685.00 L 595.00 687.00 L 587.00 687.00 L 583.00 684.00 L 581.00 680.00 L 581.00 677.00 L 583.00 670.00 Z M 353.00 631.00 L 354.00 633.00 L 351.00 638.00 L 349.00 646.00 L 342.00 662.00 L 329.00 705.00 L 323.00 737.00 L 321.00 763.00 L 319.00 768.00 L 305.00 738.00 L 304.00 730.00 L 305.00 729.00 L 306.00 717.00 L 312.00 698.00 L 323.00 675.00 L 338.00 650.00 Z M 680.00 625.00 L 684.00 625.00 L 693.00 628.00 L 705.00 634.00 L 716.00 642.00 L 728.00 656.00 L 736.00 674.00 L 737.00 679.00 L 737.00 705.00 L 735.00 712.00 L 730.00 721.00 L 722.00 729.00 L 714.00 733.00 L 696.00 734.00 L 692.00 732.00 L 689.00 732.00 L 676.00 725.00 L 686.00 715.00 L 690.00 709.00 L 693.00 702.00 L 695.00 692.00 L 694.00 662.00 L 689.00 645.00 L 679.00 626.00 Z M 582.00 620.00 L 589.00 639.00 L 588.00 640.00 L 581.00 640.00 L 577.00 636.00 L 576.00 633.00 L 577.00 626.00 Z M 591.00 610.00 L 601.00 605.00 L 608.00 603.00 L 630.00 602.00 L 638.00 604.00 L 647.00 609.00 L 649.00 609.00 L 663.00 619.00 L 674.00 630.00 L 680.00 638.00 L 684.00 646.00 L 688.00 657.00 L 690.00 667.00 L 690.00 692.00 L 685.00 706.00 L 678.00 714.00 L 669.00 719.00 L 663.00 719.00 L 662.00 720.00 L 648.00 719.00 L 619.00 711.00 L 611.00 707.00 L 606.00 702.00 L 605.00 692.00 L 610.00 687.00 L 622.00 683.00 L 648.00 680.00 L 653.00 677.00 L 653.00 673.00 L 648.00 672.00 L 627.00 678.00 L 616.00 678.00 L 606.00 674.00 L 596.00 665.00 L 593.00 660.00 L 592.00 655.00 L 593.00 652.00 L 599.00 646.00 L 611.00 641.00 L 626.00 638.00 L 635.00 638.00 L 638.00 637.00 L 638.00 636.00 L 625.00 634.00 L 603.00 639.00 L 598.00 638.00 L 593.00 632.00 L 589.00 624.00 L 588.00 614.00 Z M 389.00 558.00 L 392.00 559.00 L 391.00 564.00 L 394.00 580.00 L 396.00 583.00 L 404.00 607.00 L 404.00 610.00 L 406.00 613.00 L 412.00 638.00 L 424.00 666.00 L 442.00 717.00 L 444.00 719.00 L 444.00 722.00 L 447.00 728.00 L 449.00 736.00 L 452.00 741.00 L 462.00 768.00 L 467.00 769.00 L 473.00 766.00 L 507.00 755.00 L 514.00 774.00 L 527.00 788.00 L 527.00 796.00 L 523.00 805.00 L 521.00 823.00 L 520.00 824.00 L 519.00 852.00 L 518.00 853.00 L 518.00 876.00 L 519.00 877.00 L 520.00 892.00 L 521.00 893.00 L 522.00 903.00 L 524.00 907.00 L 524.00 911.00 L 532.00 934.00 L 539.00 948.00 L 538.00 950.00 L 529.00 954.00 L 526.00 954.00 L 519.00 957.00 L 501.00 959.00 L 500.00 960.00 L 494.00 960.00 L 478.00 957.00 L 464.00 952.00 L 445.00 942.00 L 437.00 936.00 L 429.00 928.00 L 426.00 923.00 L 423.00 911.00 L 423.00 902.00 L 422.00 901.00 L 423.00 830.00 L 424.00 829.00 L 425.00 813.00 L 428.00 801.00 L 428.00 796.00 L 434.00 765.00 L 434.00 759.00 L 440.00 728.00 L 440.00 718.00 L 439.00 716.00 L 438.00 716.00 L 438.00 719.00 L 436.00 722.00 L 432.00 738.00 L 428.00 748.00 L 418.00 787.00 L 418.00 793.00 L 416.00 799.00 L 414.00 818.00 L 411.00 830.00 L 409.00 852.00 L 408.00 853.00 L 407.00 865.00 L 405.00 871.00 L 403.00 891.00 L 402.00 892.00 L 402.00 899.00 L 404.00 903.00 L 410.00 928.00 L 414.00 939.00 L 422.00 954.00 L 421.00 955.00 L 416.00 953.00 L 412.00 953.00 L 398.00 948.00 L 384.00 940.00 L 375.00 932.00 L 361.00 910.00 L 347.00 877.00 L 338.00 847.00 L 332.00 817.00 L 331.00 803.00 L 330.00 802.00 L 329.00 766.00 L 330.00 765.00 L 331.00 743.00 L 338.00 706.00 L 345.00 684.00 L 346.00 677.00 L 363.00 628.00 L 369.00 616.00 L 371.00 609.00 L 390.00 572.00 L 390.00 568.00 L 388.00 563.00 Z M 481.00 551.00 L 482.00 550.00 L 484.00 551.00 L 483.00 552.00 Z M 331.00 532.00 L 332.00 533.00 L 331.00 534.00 L 329.00 554.00 L 328.00 555.00 L 328.00 575.00 L 329.00 576.00 L 330.00 586.00 L 336.00 598.00 L 344.00 605.00 L 354.00 610.00 L 355.00 612.00 L 347.00 626.00 L 314.00 672.00 L 305.00 687.00 L 297.00 703.00 L 296.00 709.00 L 293.00 714.00 L 276.00 683.00 L 272.00 678.00 L 261.00 669.00 L 261.00 667.00 L 305.00 565.00 L 320.00 541.00 L 327.00 534.00 Z M 596.00 518.00 L 597.00 519.00 L 598.00 559.00 L 599.00 560.00 L 600.00 574.00 L 601.00 575.00 L 604.00 597.00 L 601.00 600.00 L 591.00 605.00 L 580.00 613.00 L 571.00 622.00 L 569.00 626.00 L 568.00 633.00 L 569.00 638.00 L 573.00 643.00 L 578.00 646.00 L 586.00 648.00 L 585.00 655.00 L 578.00 665.00 L 575.00 672.00 L 575.00 685.00 L 579.00 690.00 L 583.00 692.00 L 595.00 694.00 L 598.00 699.00 L 602.00 712.00 L 601.00 713.00 L 600.00 712.00 L 594.00 713.00 L 534.00 739.00 L 507.00 748.00 L 475.00 762.00 L 468.00 764.00 L 464.00 757.00 L 460.00 744.00 L 457.00 739.00 L 444.00 700.00 L 442.00 697.00 L 438.00 682.00 L 418.00 633.00 L 418.00 630.00 L 414.00 621.00 L 413.00 614.00 L 397.00 570.00 L 397.00 565.00 L 398.00 564.00 L 420.00 564.00 L 421.00 563.00 L 430.00 563.00 L 431.00 562.00 L 455.00 561.00 L 456.00 560.00 L 478.00 558.00 L 479.00 557.00 L 520.00 551.00 L 530.00 548.00 L 535.00 548.00 L 539.00 546.00 L 555.00 543.00 L 578.00 536.00 L 586.00 532.00 L 586.00 531.00 L 583.00 531.00 L 568.00 536.00 L 564.00 536.00 L 551.00 540.00 L 541.00 541.00 L 532.00 544.00 L 507.00 547.00 L 489.00 551.00 L 484.00 551.00 L 483.00 550.00 L 484.00 549.00 L 509.00 543.00 L 516.00 540.00 L 530.00 537.00 L 551.00 530.00 Z M 348.00 508.00 L 352.00 514.00 L 351.00 531.00 L 349.00 539.00 L 349.00 550.00 L 348.00 551.00 L 349.00 561.00 L 353.00 570.00 L 356.00 573.00 L 363.00 577.00 L 371.00 579.00 L 373.00 581.00 L 372.00 586.00 L 363.00 595.00 L 350.00 594.00 L 344.00 591.00 L 340.00 587.00 L 336.00 579.00 L 336.00 574.00 L 335.00 573.00 L 335.00 547.00 L 336.00 546.00 L 337.00 527.00 L 336.00 525.00 L 330.00 525.00 L 325.00 527.00 L 318.00 533.00 L 308.00 547.00 L 289.00 584.00 L 280.00 607.00 L 267.00 635.00 L 256.00 653.00 L 250.00 661.00 L 246.00 664.00 L 244.00 658.00 L 244.00 649.00 L 248.00 633.00 L 257.00 611.00 L 259.00 609.00 L 259.00 607.00 L 273.00 579.00 L 288.00 553.00 L 303.00 532.00 L 319.00 516.00 L 328.00 510.00 L 338.00 506.00 L 344.00 506.00 Z M 690.00 500.00 L 700.00 503.00 L 709.00 508.00 L 746.00 535.00 L 755.00 545.00 L 780.00 586.00 L 799.00 628.00 L 804.00 647.00 L 806.00 676.00 L 807.00 677.00 L 807.00 689.00 L 806.00 690.00 L 805.00 702.00 L 803.00 707.00 L 800.00 710.00 L 791.00 710.00 L 773.00 705.00 L 763.00 706.00 L 755.00 711.00 L 752.00 710.00 L 746.00 690.00 L 746.00 685.00 L 742.00 666.00 L 734.00 648.00 L 725.00 636.00 L 691.00 597.00 L 695.00 586.00 L 696.00 574.00 L 697.00 573.00 L 697.00 547.00 L 696.00 546.00 L 696.00 535.00 L 693.00 520.00 L 688.00 503.00 Z M 646.00 461.00 L 660.00 460.00 L 676.00 465.00 L 703.00 478.00 L 733.00 497.00 L 749.00 510.00 L 769.00 531.00 L 782.00 548.00 L 813.00 598.00 L 813.00 600.00 L 815.00 602.00 L 821.00 615.00 L 825.00 628.00 L 826.00 641.00 L 827.00 642.00 L 826.00 666.00 L 821.00 684.00 L 815.00 694.00 L 814.00 693.00 L 813.00 665.00 L 812.00 664.00 L 812.00 656.00 L 811.00 655.00 L 809.00 638.00 L 796.00 604.00 L 775.00 563.00 L 758.00 538.00 L 743.00 522.00 L 721.00 507.00 L 700.00 496.00 L 687.00 491.00 L 679.00 491.00 L 676.00 495.00 L 676.00 504.00 L 684.00 521.00 L 688.00 533.00 L 689.00 545.00 L 690.00 546.00 L 689.00 562.00 L 686.00 573.00 L 683.00 579.00 L 680.00 582.00 L 674.00 577.00 L 654.00 549.00 L 654.00 545.00 L 660.00 538.00 L 662.00 526.00 L 658.00 509.00 L 644.00 477.00 L 643.00 466.00 Z M 310.00 453.00 L 311.00 452.00 L 312.00 453.00 L 311.00 454.00 Z M 309.00 452.00 L 310.00 451.00 L 311.00 452.00 L 310.00 453.00 Z M 695.00 620.00 L 692.00 621.00 L 684.00 618.00 L 679.00 618.00 L 668.00 615.00 L 651.00 603.00 L 633.00 596.00 L 614.00 596.00 L 611.00 589.00 L 611.00 584.00 L 605.00 554.00 L 604.00 526.00 L 603.00 525.00 L 603.00 512.00 L 602.00 510.00 L 599.00 510.00 L 580.00 517.00 L 577.00 517.00 L 549.00 526.00 L 542.00 527.00 L 535.00 530.00 L 528.00 531.00 L 499.00 540.00 L 495.00 540.00 L 470.00 547.00 L 440.00 553.00 L 428.00 554.00 L 410.00 558.00 L 404.00 558.00 L 403.00 559.00 L 392.00 559.00 L 391.00 558.00 L 401.00 556.00 L 403.00 551.00 L 409.00 544.00 L 411.00 545.00 L 413.00 553.00 L 419.00 553.00 L 418.00 539.00 L 416.00 531.00 L 416.00 522.00 L 415.00 521.00 L 415.00 507.00 L 418.00 503.00 L 428.00 501.00 L 430.00 502.00 L 443.00 502.00 L 444.00 503.00 L 473.00 502.00 L 474.00 501.00 L 485.00 500.00 L 503.00 493.00 L 520.00 483.00 L 548.00 462.00 L 575.00 436.00 L 581.00 429.00 L 587.00 419.00 L 592.00 414.00 L 594.00 414.00 L 598.00 418.00 L 601.00 424.00 L 609.00 450.00 L 620.00 496.00 L 622.00 499.00 L 626.00 513.00 L 632.00 526.00 L 635.00 536.00 L 642.00 549.00 L 647.00 555.00 L 654.00 567.00 L 693.00 619.00 Z M 395.00 409.00 L 396.00 408.00 L 397.00 409.00 L 396.00 410.00 Z M 285.00 405.00 L 286.00 404.00 L 287.00 405.00 L 286.00 406.00 Z M 281.00 375.00 L 282.00 376.00 L 278.00 388.00 L 276.00 390.00 L 272.00 390.00 L 271.00 389.00 L 272.00 385.00 L 278.00 377.00 Z M 374.00 359.00 L 376.00 359.00 L 384.00 368.00 L 384.00 374.00 L 380.00 378.00 L 377.00 379.00 L 374.00 378.00 L 370.00 374.00 L 371.00 364.00 Z M 294.00 361.00 L 305.00 351.00 L 313.00 347.00 L 314.00 349.00 L 312.00 352.00 L 308.00 366.00 L 308.00 382.00 L 312.00 399.00 L 320.00 415.00 L 331.00 427.00 L 344.00 435.00 L 358.00 439.00 L 375.00 439.00 L 390.00 434.00 L 398.00 425.00 L 402.00 412.00 L 402.00 398.00 L 398.00 380.00 L 387.00 359.00 L 377.00 349.00 L 378.00 347.00 L 381.00 348.00 L 390.00 355.00 L 397.00 363.00 L 403.00 374.00 L 406.00 383.00 L 408.00 393.00 L 408.00 413.00 L 403.00 427.00 L 399.00 433.00 L 390.00 442.00 L 378.00 449.00 L 361.00 454.00 L 336.00 454.00 L 327.00 452.00 L 314.00 446.00 L 299.00 430.00 L 291.00 415.00 L 289.00 397.00 L 288.00 396.00 L 288.00 384.00 L 286.00 375.00 L 289.00 368.00 Z M 376.00 347.00 L 377.00 346.00 L 378.00 347.00 L 377.00 348.00 Z M 313.00 347.00 L 314.00 346.00 L 315.00 347.00 L 314.00 348.00 Z M 375.00 346.00 L 376.00 345.00 L 377.00 346.00 L 376.00 347.00 Z M 326.00 345.00 L 332.00 342.00 L 335.00 343.00 L 330.00 354.00 L 329.00 374.00 L 330.00 375.00 L 330.00 382.00 L 334.00 395.00 L 341.00 408.00 L 353.00 420.00 L 365.00 425.00 L 375.00 425.00 L 382.00 423.00 L 392.00 414.00 L 395.00 409.00 L 396.00 410.00 L 396.00 417.00 L 394.00 421.00 L 387.00 428.00 L 381.00 431.00 L 373.00 433.00 L 354.00 432.00 L 342.00 427.00 L 336.00 423.00 L 329.00 416.00 L 319.00 399.00 L 315.00 383.00 L 316.00 360.00 L 320.00 351.00 Z M 541.00 314.00 L 550.00 324.00 L 549.00 332.00 L 546.00 335.00 L 543.00 336.00 L 540.00 335.00 L 536.00 331.00 L 536.00 324.00 L 538.00 318.00 Z M 614.00 296.00 L 617.00 307.00 L 616.00 333.00 L 607.00 363.00 L 593.00 393.00 L 577.00 416.00 L 551.00 444.00 L 527.00 464.00 L 509.00 476.00 L 491.00 485.00 L 467.00 492.00 L 460.00 492.00 L 452.00 494.00 L 429.00 494.00 L 428.00 493.00 L 405.00 491.00 L 398.00 489.00 L 391.00 489.00 L 353.00 480.00 L 329.00 469.00 L 321.00 464.00 L 312.00 456.00 L 311.00 454.00 L 313.00 453.00 L 321.00 457.00 L 340.00 462.00 L 360.00 462.00 L 378.00 458.00 L 397.00 448.00 L 406.00 439.00 L 414.00 424.00 L 417.00 411.00 L 417.00 382.00 L 424.00 375.00 L 433.00 370.00 L 442.00 367.00 L 461.00 366.00 L 464.00 368.00 L 474.00 388.00 L 480.00 397.00 L 492.00 409.00 L 504.00 416.00 L 516.00 419.00 L 539.00 418.00 L 550.00 415.00 L 565.00 408.00 L 576.00 400.00 L 585.00 391.00 L 595.00 375.00 L 599.00 365.00 L 602.00 351.00 L 602.00 320.00 L 604.00 316.00 L 610.00 311.00 L 612.00 296.00 L 613.00 295.00 Z M 574.00 295.00 L 575.00 294.00 L 576.00 295.00 L 575.00 296.00 Z M 511.00 292.00 L 513.00 293.00 L 497.00 308.00 L 492.00 315.00 L 486.00 330.00 L 485.00 345.00 L 484.00 346.00 L 485.00 364.00 L 490.00 381.00 L 495.00 390.00 L 503.00 398.00 L 508.00 401.00 L 515.00 403.00 L 532.00 403.00 L 544.00 400.00 L 559.00 392.00 L 569.00 383.00 L 574.00 376.00 L 582.00 359.00 L 584.00 350.00 L 584.00 342.00 L 585.00 341.00 L 584.00 320.00 L 581.00 308.00 L 575.00 297.00 L 576.00 295.00 L 583.00 301.00 L 587.00 307.00 L 593.00 321.00 L 594.00 332.00 L 595.00 333.00 L 595.00 348.00 L 592.00 364.00 L 588.00 374.00 L 578.00 388.00 L 569.00 396.00 L 563.00 400.00 L 545.00 408.00 L 541.00 408.00 L 536.00 410.00 L 520.00 410.00 L 519.00 409.00 L 514.00 409.00 L 501.00 404.00 L 487.00 391.00 L 482.00 384.00 L 475.00 368.00 L 473.00 359.00 L 473.00 337.00 L 476.00 327.00 L 480.00 319.00 L 487.00 310.00 L 499.00 299.00 Z M 512.00 292.00 L 513.00 291.00 L 515.00 292.00 L 514.00 293.00 Z M 551.00 286.00 L 559.00 290.00 L 569.00 300.00 L 574.00 309.00 L 577.00 318.00 L 578.00 330.00 L 579.00 331.00 L 579.00 343.00 L 575.00 360.00 L 568.00 373.00 L 558.00 384.00 L 550.00 390.00 L 539.00 395.00 L 526.00 398.00 L 513.00 397.00 L 507.00 394.00 L 501.00 388.00 L 493.00 374.00 L 489.00 360.00 L 489.00 342.00 L 490.00 341.00 L 492.00 342.00 L 492.00 347.00 L 494.00 351.00 L 494.00 354.00 L 501.00 369.00 L 513.00 383.00 L 524.00 388.00 L 537.00 388.00 L 544.00 386.00 L 549.00 383.00 L 558.00 373.00 L 564.00 359.00 L 565.00 347.00 L 566.00 346.00 L 565.00 328.00 L 560.00 312.00 L 553.00 301.00 L 543.00 292.00 L 531.00 287.00 L 541.00 285.00 Z M 607.00 271.00 L 611.00 273.00 L 611.00 279.00 L 610.00 280.00 L 608.00 279.00 L 608.00 276.00 L 606.00 275.00 Z M 239.00 231.00 L 250.00 232.00 L 260.00 235.00 L 266.00 238.00 L 272.00 245.00 L 273.00 249.00 L 272.00 272.00 L 270.00 280.00 L 268.00 282.00 L 265.00 281.00 L 260.00 276.00 L 255.00 268.00 L 251.00 265.00 L 251.00 272.00 L 256.00 283.00 L 272.00 303.00 L 274.00 312.00 L 274.00 318.00 L 272.00 322.00 L 265.00 319.00 L 254.00 308.00 L 248.00 300.00 L 243.00 290.00 L 239.00 270.00 L 239.00 252.00 L 238.00 251.00 L 238.00 232.00 Z M 271.00 141.00 L 280.00 141.00 L 290.00 144.00 L 307.00 153.00 L 314.00 159.00 L 305.00 171.00 L 282.00 214.00 L 278.00 218.00 L 272.00 207.00 L 261.00 173.00 L 261.00 157.00 L 265.00 147.00 Z M 590.00 127.00 L 605.00 154.00 L 609.00 167.00 L 609.00 176.00 L 610.00 177.00 L 610.00 192.00 L 609.00 193.00 L 608.00 203.00 L 604.00 213.00 L 598.00 221.00 L 595.00 228.00 L 598.00 256.00 L 601.00 263.00 L 603.00 273.00 L 606.00 277.00 L 603.00 288.00 L 599.00 295.00 L 595.00 297.00 L 591.00 296.00 L 582.00 288.00 L 571.00 282.00 L 554.00 278.00 L 533.00 279.00 L 514.00 284.00 L 496.00 294.00 L 486.00 302.00 L 479.00 310.00 L 469.00 328.00 L 466.00 338.00 L 465.00 351.00 L 463.00 354.00 L 442.00 355.00 L 439.00 357.00 L 427.00 360.00 L 413.00 368.00 L 411.00 368.00 L 401.00 355.00 L 390.00 345.00 L 376.00 338.00 L 360.00 334.00 L 335.00 334.00 L 320.00 337.00 L 301.00 346.00 L 285.00 360.00 L 283.00 357.00 L 283.00 343.00 L 282.00 342.00 L 282.00 327.00 L 281.00 326.00 L 281.00 266.00 L 282.00 265.00 L 282.00 255.00 L 283.00 254.00 L 283.00 245.00 L 284.00 244.00 L 286.00 224.00 L 288.00 217.00 L 306.00 182.00 L 310.00 178.00 L 318.00 187.00 L 322.00 188.00 L 324.00 186.00 L 323.00 167.00 L 327.00 163.00 L 334.00 162.00 L 339.00 164.00 L 346.00 164.00 L 348.00 162.00 L 348.00 159.00 L 345.00 155.00 L 337.00 152.00 L 330.00 152.00 L 326.00 150.00 L 327.00 149.00 L 330.00 149.00 L 333.00 147.00 L 347.00 143.00 L 372.00 140.00 L 403.00 123.00 L 426.00 115.00 L 430.00 115.00 L 440.00 112.00 L 466.00 111.00 L 508.00 120.00 L 518.00 124.00 L 528.00 130.00 L 542.00 143.00 L 549.00 154.00 L 553.00 163.00 L 557.00 168.00 L 569.00 192.00 L 572.00 196.00 L 578.00 199.00 L 581.00 202.00 L 587.00 217.00 L 589.00 217.00 L 589.00 210.00 L 585.00 197.00 L 585.00 180.00 L 588.00 174.00 L 591.00 171.00 L 594.00 165.00 L 594.00 162.00 L 588.00 165.00 L 582.00 171.00 L 578.00 183.00 L 572.00 169.00 L 564.00 160.00 L 562.00 155.00 L 568.00 146.00 L 580.00 132.00 L 587.00 126.00 Z M 539.00 66.00 L 541.00 66.00 L 550.00 77.00 L 555.00 87.00 L 558.00 97.00 L 559.00 120.00 L 558.00 121.00 L 557.00 140.00 L 555.00 143.00 L 540.00 129.00 L 527.00 120.00 L 508.00 111.00 L 495.00 109.00 L 492.00 107.00 L 493.00 103.00 L 510.00 87.00 L 526.00 74.00 Z " fill="#000000" stroke="none" fill-rule="evenodd"/>
</svg>
